<svg xmlns="http://www.w3.org/2000/svg" viewBox="0 0 200 200" role="img" aria-label="慢性腎臟病插畫：腎臟與心臟">
  <g fill="none" stroke="#14323a" stroke-linecap="round" stroke-linejoin="round">
    <circle cx="100" cy="100" r="92" stroke-width="2"/>
    <circle cx="100" cy="100" r="83" stroke-width="1"/>
    <!-- kidney -->
    <path d="M104 54 C132 54 152 76 152 103 C152 133 128 154 102 152 C90 151 82 143 78 132 C69 139 59 127 68 114 C59 102 67 89 78 97 C82 80 88 66 104 54 Z" stroke-width="2.6"/>
    <!-- renal pelvis hint -->
    <path d="M100 104 C92 104 85 110 81 120" stroke-width="1.4"/>
  </g>
  <!-- heart accent (kidney-heart link) -->
  <path d="M60 122 C52 114 44 109 44 102 C44 96 50 93 54 96 C57 98 59 101 60 103 C61 101 63 98 66 96 C70 93 76 96 76 102 C76 109 68 114 60 122 Z" fill="#c43d34"/>
</svg>
