<svg xmlns="http://www.w3.org/2000/svg" viewBox="0 0 168 168" role="img" aria-label="冠狀動脈鈣化插圖">
<circle cx="84" cy="84" r="80" fill="#ece5d8"/>
<path d="M84 120 C57 99 45 84 45 68 C45 57 54 49 64 49 C73 49 80 54 84 61 C88 54 95 49 104 49 C114 49 123 57 123 68 C123 84 111 99 84 120 Z" fill="#e6b3ad"/>
<path d="M84 56 C79 68 90 74 83 88 C78 99 92 102 87 113" fill="none" stroke="#0f7a82" stroke-width="5" stroke-linecap="round"/>
<path d="M83 66 q-15 3 -21 16" fill="none" stroke="#0f7a82" stroke-width="4.2" stroke-linecap="round"/>
<circle cx="84" cy="74" r="3.6" fill="#fffdf9" stroke="#7d8a8c" stroke-width="1.4"/>
<circle cx="85" cy="96" r="3.2" fill="#fffdf9" stroke="#7d8a8c" stroke-width="1.4"/>
<circle cx="69" cy="79" r="3.2" fill="#fffdf9" stroke="#7d8a8c" stroke-width="1.4"/>
</svg>
