<svg xmlns="http://www.w3.org/2000/svg" viewBox="0 0 168 168" role="img" aria-label="減重針注射筆插圖">
<circle cx="84" cy="84" r="80" fill="#ece5d8"/>
<g transform="rotate(18 84 84)">
<rect x="74" y="20" width="20" height="11" rx="4" fill="#c43d34"/>
<rect x="68" y="31" width="32" height="15" rx="5" fill="#9c2f28"/>
<rect x="65" y="45" width="38" height="76" rx="13" fill="#0f7a82"/>
<rect x="73" y="60" width="22" height="22" rx="3" fill="#fffdf9"/>
<line x1="78" y1="66" x2="90" y2="66" stroke="#0f7a82" stroke-width="2"/>
<line x1="78" y1="72" x2="90" y2="72" stroke="#0f7a82" stroke-width="2"/>
<path d="M65 116 L103 116 L93 131 L75 131 Z" fill="#0c666d"/>
<rect x="82" y="131" width="4" height="15" fill="#7d8a8c"/>
<path d="M84 148 c-6 8 -6 13 0 13 c6 0 6 -5 0 -13 Z" fill="#c43d34"/>
</g>
</svg>
